/* XPM */
static char * install_32x32_xpm[] = {
"32 32 327 2",
"  	c None",
". 	c #A18A62",
"+ 	c #C6AE88",
"@ 	c #B19B78",
"# 	c #A6906B",
"$ 	c #C5B089",
"% 	c #A9936E",
"& 	c #947B50",
"* 	c #BBA781",
"= 	c #CDAF7B",
"- 	c #C2A166",
"; 	c #BC9B63",
"> 	c #B9A37D",
", 	c #8F764C",
"' 	c #378C00",
") 	c #3D9B00",
"! 	c #42A600",
"~ 	c #42A301",
"{ 	c #509212",
"] 	c #77902F",
"^ 	c #C6A76F",
"/ 	c #C2AD86",
"( 	c #9B835A",
"_ 	c #AA9670",
": 	c #CDB285",
"< 	c #C3A267",
"[ 	c #BB9A60",
"} 	c #B49358",
"| 	c #AD8B50",
"1 	c #B49B6D",
"2 	c #9C855C",
"3 	c #3B8F01",
"4 	c #43A800",
"5 	c #40A000",
"6 	c #439F04",
"7 	c #44AA00",
"8 	c #43A202",
"9 	c #728F2C",
"0 	c #C8AB79",
"a 	c #B29D7A",
"b 	c #A18A64",
"c 	c #C3AB82",
"d 	c #B59459",
"e 	c #AE8C51",
"f 	c #A7854A",
"g 	c #9F7E42",
"h 	c #A78D5D",
"i 	c #B39A71",
"j 	c #B19A70",
"k 	c #B39B71",
"l 	c #AA996A",
"m 	c #4E9114",
"n 	c #44A104",
"o 	c #658F2C",
"p 	c #938F56",
"q 	c #7D7A2B",
"r 	c #4C8D0C",
"s 	c #48990A",
"t 	c #999160",
"u 	c #99815A",
"v 	c #BDA780",
"w 	c #A8864B",
"x 	c #A07F43",
"y 	c #A28553",
"z 	c #A1834B",
"A 	c #9C7B3F",
"B 	c #6B7F22",
"C 	c #449904",
"D 	c #6A8021",
"E 	c #9E7D43",
"F 	c #A78D5F",
"G 	c #787A28",
"H 	c #43A201",
"I 	c #44A900",
"J 	c #358401",
"K 	c #B6A27D",
"L 	c #B49D73",
"M 	c #BCA47A",
"N 	c #BBA378",
"O 	c #BBA379",
"P 	c #C8B28C",
"Q 	c #CFBC9A",
"R 	c #D0BC9A",
"S 	c #9DB36D",
"T 	c #A5B274",
"U 	c #CDB996",
"V 	c #BAA379",
"W 	c #C3AF8C",
"X 	c #4E9214",
"Y 	c #378B00",
"Z 	c #AD9773",
"` 	c #CBAB73",
" .	c #CAA96F",
"..	c #65902E",
"+.	c #B09B75",
"@.	c #7C9345",
"#.	c #43A700",
"$.	c #388E00",
"%.	c #348400",
"&.	c #AF9A74",
"*.	c #C5A46A",
"=.	c #BEA265",
"-.	c #6B8D29",
";.	c #588F19",
">.	c #679323",
",.	c #598B23",
"'.	c #42A500",
").	c #3E9A00",
"!.	c #409E00",
"~.	c #368600",
"{.	c #AE9973",
"].	c #C09F64",
"^.	c #BF9E63",
"/.	c #6F902A",
"(.	c #47A005",
"_.	c #388C00",
":.	c #FFE57F",
"<.	c #AC9872",
"[.	c #BA995E",
"}.	c #B9985D",
"|.	c #B9985E",
"1.	c #7B8835",
"2.	c #47940C",
"3.	c #3A9300",
"4.	c #E1C868",
"5.	c #FCD13A",
"6.	c #FFD52F",
"7.	c #FFE16A",
"8.	c #AB9671",
"9.	c #B59359",
"0.	c #B19057",
"a.	c #6B593B",
"b.	c #3D382C",
"c.	c #35332D",
"d.	c #314027",
"e.	c #357B08",
"f.	c #3D9602",
"g.	c #2A4A13",
"h.	c #78736A",
"i.	c #A49C7A",
"j.	c #DCC152",
"k.	c #ECB246",
"l.	c #FFD632",
"m.	c #AA9570",
"n.	c #AF8E53",
"o.	c #9F824D",
"p.	c #453E2F",
"q.	c #343433",
"r.	c #323434",
"s.	c #323435",
"t.	c #2F3132",
"u.	c #2B312A",
"v.	c #2C4C19",
"w.	c #222425",
"x.	c #33322C",
"y.	c #9C988C",
"z.	c #544F43",
"A.	c #D2BD6B",
"B.	c #F9D237",
"C.	c #A9946D",
"D.	c #AA884D",
"E.	c #9C7E48",
"F.	c #322D25",
"G.	c #343536",
"H.	c #393B3B",
"I.	c #6C6C6D",
"J.	c #888888",
"K.	c #808080",
"L.	c #696A6A",
"M.	c #3E4041",
"N.	c #262929",
"O.	c #42413D",
"P.	c #3C3B34",
"Q.	c #1A1E1E",
"R.	c #A8936D",
"S.	c #A48347",
"T.	c #A38247",
"U.	c #494030",
"V.	c #333435",
"W.	c #3E4040",
"X.	c #9C9D9D",
"Y.	c #BFBFBF",
"Z.	c #BCBCBC",
"`.	c #B6B6B6",
" +	c #AEAEAE",
".+	c #A5A5A5",
"++	c #828282",
"@+	c #343636",
"#+	c #1E2122",
"$+	c #232626",
"%+	c #A7916B",
"&+	c #9F7D41",
"*+	c #9D7C40",
"=+	c #745D36",
"-+	c #343533",
";+	c #38393A",
">+	c #929292",
",+	c #C4C4C4",
"'+	c #8C8C8D",
")+	c #BBBBBB",
"!+	c #989898",
"~+	c #878888",
"{+	c #9D9D9D",
"]+	c #6D6E6E",
"^+	c #1D1F20",
"/+	c #191C1D",
"(+	c #212526",
"_+	c #A6916A",
":+	c #99773C",
"<+	c #5D4D32",
"[+	c #333536",
"}+	c #444646",
"|+	c #C7C7C7",
"1+	c #6F7070",
"2+	c #5F5F5F",
"3+	c #BDBDBD",
"4+	c #6A6B6B",
"5+	c #3B3C3D",
"6+	c #969696",
"7+	c #8A8A8A",
"8+	c #1E2223",
"9+	c #16191A",
"0+	c #272A2B",
"a+	c #1E2020",
"b+	c #A38E69",
"c+	c #9E7F48",
"d+	c #98773D",
"e+	c #4B4330",
"f+	c #313333",
"g+	c #444547",
"h+	c #B2B3B3",
"i+	c #C3C3C3",
"j+	c #999999",
"k+	c #9E9E9E",
"l+	c #BABABA",
"m+	c #535353",
"n+	c #4E5050",
"o+	c #9C9C9C",
"p+	c #939393",
"q+	c #2B2F30",
"r+	c #15191A",
"s+	c #202425",
"t+	c #232527",
"u+	c #A18B67",
"v+	c #A6926E",
"w+	c #434038",
"x+	c #2E3132",
"y+	c #383A3A",
"z+	c #565757",
"A+	c #9F9F9F",
"B+	c #B4B4B4",
"C+	c #A7A7A7",
"D+	c #A0A0A0",
"E+	c #9A9A9A",
"F+	c #919191",
"G+	c #373A3B",
"H+	c #1B1E1F",
"I+	c #272A2A",
"J+	c #242727",
"K+	c #2B2E2F",
"L+	c #353839",
"M+	c #7A7A7A",
"N+	c #A0A1A1",
"O+	c #ADADAD",
"P+	c #909090",
"Q+	c #636364",
"R+	c #1C1F21",
"S+	c #171A1B",
"T+	c #2A2C2D",
"U+	c #19191B",
"V+	c #2A2C2E",
"W+	c #767778",
"X+	c #A9A9A9",
"Y+	c #676768",
"Z+	c #535656",
"`+	c #4D4E4E",
" @	c #565657",
".@	c #2D2F2F",
"+@	c #212324",
"@@	c #191B1C",
"#@	c #292B2C",
"$@	c #777777",
"%@	c #8F8F8F",
"&@	c #9A9B9B",
"*@	c #48494A",
"=@	c #8E8E8E",
"-@	c #262829",
";@	c #1D2021",
">@	c #1F2020",
",@	c #6C6D6D",
"'@	c #4B4C4D",
")@	c #979797",
"!@	c #656666",
"~@	c #3C3E3F",
"{@	c #171A1A",
"]@	c #2E3031",
"^@	c #181B1B",
"/@	c #171919",
"(@	c #313435",
"_@	c #1F2223",
":@	c #3F4041",
"<@	c #333535",
"[@	c #747575",
"}@	c #484A4B",
"|@	c #26292A",
"1@	c #202020",
"2@	c #1A1B1C",
"3@	c #1A1C1D",
"4@	c #161A1A",
"5@	c #151819",
"6@	c #232627",
"7@	c #2D3031",
"8@	c #161616",
"9@	c #1B1C1C",
"0@	c #181B1C",
"a@	c #2D3030",
"b@	c #2C3031",
"c@	c #1A1A1B",
"d@	c #1B1D1D",
"e@	c #272929",
"f@	c #353738",
"g@	c #323536",
"h@	c #363939",
"i@	c #232424",
"j@	c #1D2020",
"k@	c #1D1E1E",
"l@	c #1B1B1B",
"                                                                ",
"                                                                ",
"                                                                ",
"                                                                ",
"    . + @                             # $ %                     ",
"& * = - ; > ,                 ' ) ! ~ { ] ^ / (                 ",
"_ : < [ } | 1 2             3 4 5 6 7 7 8 9 0 a                 ",
"  b c d e f g h i j k k l m n o p q r 7 7 s t                   ",
"    u v w x y z A A A A B C D A E F G H 7 I J                   ",
"        K L M N O P Q R S T U O O V W X 7 7 Y                   ",
"        Z `  . . . . . . . . . . . . ...7 7 '                   ",
"        +. . . . . . . . . . . . . . .@.#.7 $.  %.              ",
"        &.*.*.*.*.*.*.=.*.*.*.*.-.;.>.,.'.7 ).!.~.              ",
"        {.].].].].].].].].].].].^./.(.7 7 7 7 _.          :.    ",
"        <.[.[.[.[.[.[.[.[.[.[.[.}.|.1.2.7 7 3.        4.5.6.7.  ",
"        8.9.9.9.9.9.9.9.9.9.9.0.a.b.c.d.e.f.g.    h.i.j.k.l.    ",
"        m.n.n.n.n.n.n.n.n.n.o.p.q.r.s.t.u.v.w.x.y.z.  A.B.      ",
"        C.D.D.D.D.D.D.D.D.E.F.G.H.I.J.K.L.M.N.O.P.Q.            ",
"        R.S.S.S.S.S.S.S.T.U.V.W.X.Y.Z.`. +.+++@+#+$+            ",
"        %+&+&+&+&+&+&+*+=+-+;+>+,+>+'+)+!+~+{+]+^+/+(+          ",
"        _+:+:+:+:+:+:+:+<+[+}+Z.|+1+2+3+4+5+6+7+8+9+0+a+        ",
"        b+c+d+d+d+d+d+d+e+f+g+h+i+j+k+l+m+n+o+p+q+r+s+t+        ",
"          u+v+v+v+v+v+v+w+x+y+z+A+3+)+B+C+D+E+F+G+9+H+I+        ",
"                        J+K+L+M+F+1+N+O+C+A+P+Q+R+9+S+T+        ",
"                        U+V+W+.+X+Y+Z+`+ @`+.@+@@@9+H+#@        ",
"                          T+$@{+%@&@k+*@!+=@J+H+9+r+-@;@        ",
"                          >@0+,@'@!+)@!@P+P+~@{@9+9+]@^@        ",
"                          /@(@_@:@P+P+<@[@}@9+9+9+|@#+          ",
"                            1@N.2@;@0+3@4@9+9+5@6@7@8@          ",
"                              9@x+_@0@9+9+9+;@a@b@c@            ",
"                                d@e@f@L+g@h@(@i@                ",
"                                      j@k@l@                    "};
