/* XPM */
static char * uninstall_xpm[] = {
"32 32 472 2",
"  	c None",
". 	c #FFDB4C",
"+ 	c #FFE67F",
"@ 	c #FFDB4F",
"# 	c #FFD83F",
"$ 	c #FFD62C",
"% 	c #1D1F1F",
"& 	c #252527",
"* 	c #2A2B2C",
"= 	c #242424",
"- 	c #222323",
"; 	c #212323",
"> 	c #766E4C",
", 	c #CDB345",
"' 	c #F2CB38",
") 	c #EAA249",
"! 	c #FFDA47",
"~ 	c #1B1C1C",
"{ 	c #252626",
"] 	c #2C2D2E",
"^ 	c #2C2E2F",
"/ 	c #2A2D2D",
"( 	c #292B2B",
"_ 	c #242627",
": 	c #232526",
"< 	c #232525",
"[ 	c #20201E",
"} 	c #67645B",
"| 	c #ABA899",
"1 	c #747062",
"2 	c #8B815E",
"3 	c #DFC55B",
"4 	c #F7D136",
"5 	c #FFD733",
"6 	c #202121",
"7 	c #313334",
"8 	c #343536",
"9 	c #343637",
"0 	c #2E3031",
"a 	c #2A2C2D",
"b 	c #262829",
"c 	c #212324",
"d 	c #69665E",
"e 	c #817D6F",
"f 	c #1B1B1B",
"g 	c #FFE066",
"h 	c #46576D",
"i 	c #272A2D",
"j 	c #38393A",
"k 	c #58595A",
"l 	c #909191",
"m 	c #A0A1A1",
"n 	c #969696",
"o 	c #808181",
"p 	c #585959",
"q 	c #2F3132",
"r 	c #262728",
"s 	c #625F57",
"t 	c #2A2A27",
"u 	c #39414C",
"v 	c #5370A5",
"w 	c #334F84",
"x 	c #475B71",
"y 	c #7993B7",
"z 	c #3A3E44",
"A 	c #333535",
"B 	c #393A3B",
"C 	c #737475",
"D 	c #BDBDBD",
"E 	c #BFBFBF",
"F 	c #BBBBBB",
"G 	c #B5B5B5",
"H 	c #AEAEAE",
"I 	c #A7A7A7",
"J 	c #9A9A9A",
"K 	c #5E5F5F",
"L 	c #1B1E1F",
"M 	c #272A2B",
"N 	c #555A5F",
"O 	c #BCCBDF",
"P 	c #486BAE",
"Q 	c #789ABA",
"R 	c #4D5662",
"S 	c #373939",
"T 	c #696B6B",
"U 	c #909090",
"V 	c #A8A9A9",
"W 	c #BABABA",
"X 	c #A8A8A8",
"Y 	c #949495",
"Z 	c #9F9F9F",
"` 	c #999999",
" .	c #414243",
"..	c #171A1B",
"+.	c #343537",
"@.	c #87909B",
"#.	c #5477C4",
"$.	c #132859",
"%.	c #101A1E",
"&.	c #86C3E9",
"*.	c #6C8A9F",
"=.	c #35393C",
"-.	c #AFAFAF",
";.	c #C4C4C4",
">.	c #525252",
",.	c #6F6F6F",
"'.	c #BCBCBC",
").	c #7A7B7B",
"!.	c #3D3E3E",
"~.	c #757676",
"{.	c #616363",
"].	c #1D2021",
"^.	c #16191A",
"/.	c #2E436E",
"(.	c #4068C3",
"_.	c #3162DE",
":.	c #1B2F5D",
"<.	c #7AC1E7",
"[.	c #77BDE8",
"}.	c #7FB9E6",
"|.	c #78A3CA",
"1.	c #8FB5DB",
"2.	c #94B5DA",
"3.	c #89A6CA",
"4.	c #5F7797",
"5.	c #7E8DA4",
"6.	c #B0B6C0",
"7.	c #545963",
"8.	c #425677",
"9.	c #5B78AD",
"0.	c #6586C8",
"a.	c #5077C8",
"b.	c #3965C5",
"c.	c #3666D5",
"d.	c #3062DE",
"e.	c #3060DD",
"f.	c #3665DD",
"g.	c #626F86",
"h.	c #B1CFE3",
"i.	c #74BAE5",
"j.	c #6FB4E6",
"k.	c #6AAEE5",
"l.	c #66A8E4",
"m.	c #61A2E4",
"n.	c #5D9CE3",
"o.	c #5996E3",
"p.	c #5691E3",
"q.	c #518CE3",
"r.	c #4C85E3",
"s.	c #467EE1",
"t.	c #4278DF",
"u.	c #3D72DF",
"v.	c #396CDE",
"w.	c #3466DE",
"x.	c #446DD5",
"y.	c #8B9FCC",
"z.	c #43464B",
"A.	c #CACED4",
"B.	c #A7B2BD",
"C.	c #8EB2CF",
"D.	c #7AAEDB",
"E.	c #70A8DE",
"F.	c #65A1E3",
"G.	c #5B99E3",
"H.	c #5693E2",
"I.	c #528DE2",
"J.	c #4D87E1",
"K.	c #4981E0",
"L.	c #447BE0",
"M.	c #4075DF",
"N.	c #3B6FDF",
"O.	c #3E6EDD",
"P.	c #4F75D2",
"Q.	c #6480C6",
"R.	c #7E91B9",
"S.	c #A1A9B2",
"T.	c #AEB8C5",
"U.	c #C8CBD1",
"V.	c #AEB2B9",
"W.	c #AEB3B8",
"X.	c #B2B5BB",
"Y.	c #C3C6CB",
"Z.	c #D3D6DA",
"`.	c #C5C9D0",
" +	c #BDC6D4",
".+	c #BDCCE2",
"++	c #B1C4E2",
"@+	c #A9BDE1",
"#+	c #B0C0DE",
"$+	c #B8C4DA",
"%+	c #BCC4D3",
"&+	c #B4B9C0",
"*+	c #A2A7AE",
"=+	c #9EA5AD",
"-+	c #9BA3AC",
";+	c #9FA7B0",
">+	c #ABB4C1",
",+	c #BABEC3",
"'+	c #B0B4BA",
")+	c #ADB1B7",
"!+	c #B99597",
"~+	c #B9605C",
"{+	c #C08585",
"]+	c #D6D8DD",
"^+	c #BCBEC2",
"/+	c #BFC1C5",
"(+	c #C5C6C9",
"_+	c #C3C4C8",
":+	c #BEC1C6",
"<+	c #B8BBC0",
"[+	c #ABAEB4",
"}+	c #A45A59",
"|+	c #AB4945",
"1+	c #9F7679",
"2+	c #AAB4C0",
"3+	c #A8ABAF",
"4+	c #B7BBC1",
"5+	c #ADB2B8",
"6+	c #B66461",
"7+	c #D54433",
"8+	c #CD493B",
"9+	c #B87776",
"0+	c #D8DADE",
"a+	c #D5D7DB",
"b+	c #D5D7DA",
"c+	c #D2D5D9",
"d+	c #B3B5BA",
"e+	c #A65E5E",
"f+	c #C53C2E",
"g+	c #CB3B2A",
"h+	c #A35453",
"i+	c #9DA4AD",
"j+	c #A0A8B1",
"k+	c #A5AEBB",
"l+	c #8F9397",
"m+	c #C6CAD1",
"n+	c #B28E91",
"o+	c #C25148",
"p+	c #D34332",
"q+	c #CB4639",
"r+	c #BC7B7B",
"s+	c #D7D9DD",
"t+	c #C7C8CC",
"u+	c #D6D7DB",
"v+	c #D1D4D8",
"w+	c #B47372",
"x+	c #C23D30",
"y+	c #CB3C2A",
"z+	c #AF4640",
"A+	c #9D8890",
"B+	c #9FA6B0",
"C+	c #9DA5AF",
"D+	c #B1BBC8",
"E+	c #6F7172",
"F+	c #E2E7EE",
"G+	c #B1B6BB",
"H+	c #A98386",
"I+	c #B9483F",
"J+	c #D44432",
"K+	c #CC473A",
"L+	c #BB7878",
"M+	c #C3C5C9",
"N+	c #D4D6D9",
"O+	c #BC8383",
"P+	c #C6463A",
"Q+	c #CC3C2B",
"R+	c #B4453D",
"S+	c #A08287",
"T+	c #A3AAB3",
"U+	c #A5ADB6",
"V+	c #B1BBC9",
"W+	c #3C3C40",
"X+	c #E7ECF3",
"Y+	c #C8CDD3",
"Z+	c #B5B9BF",
"`+	c #ACB0B5",
" @	c #AA8385",
".@	c #BE4D44",
"+@	c #D44433",
"@@	c #AB6868",
"#@	c #B58384",
"$@	c #BE4439",
"%@	c #B94339",
"&@	c #A37B7D",
"*@	c #A1A7AF",
"=@	c #A3A9B2",
"-@	c #A0A7B0",
";@	c #BFC8D4",
">@	c #E6EAF1",
",@	c #E7EBF2",
"'@	c #BBBEC5",
")@	c #B2B5BA",
"!@	c #ADB1B5",
"~@	c #A98183",
"{@	c #B8473E",
"]@	c #CE3E2C",
"^@	c #C44032",
"/@	c #B9443A",
"(@	c #CD3D2B",
"_@	c #BE4135",
":@	c #A47173",
"<@	c #A4A9B0",
"[@	c #A5ACB3",
"}@	c #A6ACB5",
"|@	c #ADB4BF",
"1@	c #CED8E5",
"2@	c #A2ABB6",
"3@	c #DFE3EB",
"4@	c #E8EDF3",
"5@	c #E0E4EA",
"6@	c #B9BCC1",
"7@	c #B4B8BC",
"8@	c #B1B4B9",
"9@	c #AA8184",
"0@	c #B8463D",
"a@	c #CE3D2C",
"b@	c #C23F32",
"c@	c #A56767",
"d@	c #AAAEB4",
"e@	c #ACB1B7",
"f@	c #A8AEB6",
"g@	c #AEB5BE",
"h@	c #D3DCE8",
"i@	c #D0DAE7",
"j@	c #99A1AC",
"k@	c #D3D7DD",
"l@	c #E8ECF3",
"m@	c #E9EDF4",
"n@	c #E5E8EE",
"o@	c #B9BBBF",
"p@	c #B5A7AA",
"q@	c #B14D48",
"r@	c #CF3F2D",
"s@	c #CF3E2D",
"t@	c #BA453B",
"u@	c #AD8486",
"v@	c #B1B5BB",
"w@	c #B0B5BC",
"x@	c #BFC6CF",
"y@	c #D8E0EC",
"z@	c #D4DDEA",
"A@	c #9199A3",
"B@	c #C2C6CC",
"C@	c #E9ECF4",
"D@	c #EAEEF5",
"E@	c #EBEFF5",
"F@	c #D9D1D5",
"G@	c #B45550",
"H@	c #D1412F",
"I@	c #CD3F2F",
"J@	c #C64033",
"K@	c #B94840",
"L@	c #B79498",
"M@	c #D7DDE6",
"N@	c #DBE3ED",
"O@	c #88909A",
"P@	c #ABAFB3",
"Q@	c #E5EAF2",
"R@	c #E7EBF3",
"S@	c #E6E3E9",
"T@	c #C16662",
"U@	c #D94A39",
"V@	c #D84A3A",
"W@	c #C16B69",
"X@	c #C48281",
"Y@	c #D14C3F",
"Z@	c #D94938",
"`@	c #C4574F",
" #	c #CFB1B6",
".#	c #DCE4EE",
"+#	c #7F868E",
"@#	c #94979E",
"##	c #E6E5EC",
"$#	c #C06B69",
"%#	c #D74A39",
"&#	c #C16764",
"*#	c #EDE9ED",
"=#	c #F1F4F9",
"-#	c #C68383",
";#	c #D24A3D",
">#	c #D84838",
",#	c #C35852",
"'#	c #CDB4BB",
")#	c #767D86",
"!#	c #818488",
"~#	c #E6E8F0",
"{#	c #C0706F",
"]#	c #D64939",
"^#	c #D94A38",
"/#	c #C16360",
"(#	c #E8E1E5",
"_#	c #EEF2F8",
":#	c #C37C7D",
"<#	c #D1493B",
"[#	c #D74837",
"}#	c #C05753",
"|#	c #CBB7BF",
"1#	c #6B7179",
"2#	c #6A6C70",
"3#	c #D9C6CD",
"4#	c #CA4F43",
"5#	c #DA4A39",
"6#	c #C2605B",
"7#	c #E4D7DD",
"8#	c #ECF0F6",
"9#	c #E8EDF4",
"0#	c #E4E9F0",
"a#	c #BF7778",
"b#	c #D1483B",
"c#	c #BD6766",
"d#	c #D6DFEB",
"e#	c #62666E",
"f#	c #4A4A4D",
"g#	c #E4EAF2",
"h#	c #E2E7F0",
"i#	c #C17A7B",
"j#	c #BF6765",
"k#	c #DECDD1",
"l#	c #F0F3F8",
"m#	c #F4F6FA",
"n#	c #F2F5F9",
"o#	c #F1F3F8",
"p#	c #EFF2F7",
"q#	c #EDF0F6",
"r#	c #EAEDF3",
"s#	c #C27878",
"t#	c #C25A55",
"u#	c #C88F92",
"v#	c #E4E9F2",
"w#	c #D5DEEA",
"x#	c #51555D",
"y#	c #D4DCE7",
"z#	c #D0DAE8",
"A#	c #DCE3ED",
"B#	c #DFE6EF",
"C#	c #E3E9F1",
"D#	c #F3F5F9",
"E#	c #EBE9EF",
"F#	c #EDF1F7",
"G#	c #ECEFF6",
"H#	c #D8DEE7",
"I#	c #7F8288",
"J#	c #D7E0EB",
"K#	c #D2DCE9",
"L#	c #CFD9E7",
"M#	c #CBD6E5",
"N#	c #D3DCE9",
"O#	c #D7DFEB",
"P#	c #DAE2ED",
"Q#	c #DEE5EF",
"R#	c #E2E8F1",
"S#	c #E6EBF3",
"T#	c #E3E7ED",
"U#	c #595B61",
"V#	c #36363A",
"W#	c #C1C5CC",
"X#	c #DDE3EB",
"Y#	c #D4DDE9",
"Z#	c #CCD7E5",
"`#	c #CED8E6",
" $	c #D4DCE9",
".$	c #D9E1EC",
"+$	c #D9E0EA",
"@$	c #C3CAD2",
"#$	c #8C9198",
"$$	c #2C2C2C",
"%$	c #7B7C7F",
"&$	c #898C8E",
"*$	c #9D9EA3",
"=$	c #A9ACB1",
"-$	c #8A8D8F",
";$	c #6A6D71",
"                                                                ",
"                                                  .   +         ",
"                                                  @ # $         ",
"                          % & * = - ;         > , ' ) !         ",
"                      ~ { ] ^ / ( _ : < [ } | 1 2 3 4 5         ",
"                    6 7 8 8 9 7 0 a b c d e f       g           ",
"                h i 8 j k l m n o p q r s t u v w               ",
"            x y z A B C D E F G H I J K c L M N O P             ",
"            Q R 9 S T E F U V W X Y Z `  .L ..+.@.#.$.          ",
"          %.&.*.=.B -.;.X >.,.'.).!.~.J {.].^./.(._.:.          ",
"            <.[.}.|.1.2.3.4.5.6.7.8.9.0.a.b.c.d.e.f.g.          ",
"            h.i.j.k.l.m.n.o.p.q.r.s.t.u.v.w.e.e.x.y.z.          ",
"            A.B.C.D.E.F.G.H.I.J.K.L.M.N.O.P.Q.R.S.T.            ",
"            U.V.W.X.Y.Z.`. +.+++@+#+$+%+&+*+=+-+;+>+            ",
"            ,+'+)+!+~+{+]+^+/+(+_+:+<+[+}+|+1+-+S.2+            ",
"            3+4+5+6+7+8+9+0+a+^+b+c+d+e+f+g+h+i+j+k+            ",
"            l+m+W.n+o+p+q+r+s+t+u+v+w+x+y+z+A+B+C+D+            ",
"            E+F+G+)+H+I+J+K+L+M+N+O+P+Q+R+S+=+T+U+V+            ",
"            W+X+Y+Z+`+ @.@+@K+@@#@$@Q+%@&@*@=@-@;@2+            ",
"              >@,@'@)@!@~@{@]@^@/@(@_@:@<@[@}@|@1@2@            ",
"              3@4@5@6@7@8@9@0@a@a@b@c@d@e@f@g@h@i@j@            ",
"              k@l@m@n@:+o@p@q@r@s@t@u@v@w@x@y@z@i@A@            ",
"              B@X+C@D@E@F@G@H@I@J@r@K@L@M@N@y@z@i@O@            ",
"              P@Q@R@m@S@T@U@V@W@X@Y@Z@`@ #.#y@z@i@+#            ",
"              @#Q@R@##$#%#U@&#*#=#-#;#>#,#'#y@z@i@)#            ",
"              !#Q@~#{#]#^#/#(#_#D@m@:#<#[#}#|#z@i@1#            ",
"              2#Q@3#4#5#6#7#8#D@9#R@0#a#b#[#c#d#i@e#            ",
"              f#g#h#i#j#k#l#m#n#o#p#q#r#s#t#u#v#w#x#            ",
"                y#z#z@y@A#B#C#X+E@p#n#D#o#E#F#G#H#              ",
"                I#J#K#L#M#L#N#O#P#Q#R#S#D@F#=#T#U#              ",
"                  V#W#X#B#P#Y#i@Z#`# $.$+$@$#$                  ",
"                        $$%$&$*$=$-$;$                          "};
