<?xml version="1.0" encoding="UTF-8" standalone="no"?>
<!-- Created with Inkscape (http://www.inkscape.org/) -->
<svg
   xmlns:dc="http://purl.org/dc/elements/1.1/"
   xmlns:cc="http://creativecommons.org/ns#"
   xmlns:rdf="http://www.w3.org/1999/02/22-rdf-syntax-ns#"
   xmlns:svg="http://www.w3.org/2000/svg"
   xmlns="http://www.w3.org/2000/svg"
   xmlns:xlink="http://www.w3.org/1999/xlink"
   xmlns:sodipodi="http://sodipodi.sourceforge.net/DTD/sodipodi-0.dtd"
   xmlns:inkscape="http://www.inkscape.org/namespaces/inkscape"
   width="2200"
   height="1500"
   id="svg2"
   sodipodi:version="0.32"
   inkscape:version="0.46"
   version="1.0"
   inkscape:export-filename="BG.png"
   inkscape:export-xdpi="90"
   inkscape:export-ydpi="90"
   sodipodi:docname="puyolandiaBG.svg"
   inkscape:output_extension="org.inkscape.output.svg.inkscape">
  <defs
     id="defs4">
    <linearGradient
       id="linearGradient3565">
      <stop
         style="stop-color:#191b24;stop-opacity:1;"
         offset="0"
         id="stop3567" />
      <stop
         style="stop-color:#102e4c;stop-opacity:1;"
         offset="1"
         id="stop3569" />
    </linearGradient>
    <linearGradient
       id="linearGradient3177">
      <stop
         style="stop-color:#050a20;stop-opacity:1;"
         offset="0"
         id="stop3179" />
      <stop
         style="stop-color:#19296d;stop-opacity:1;"
         offset="1"
         id="stop3181" />
    </linearGradient>
    <linearGradient
       id="linearGradient3159">
      <stop
         id="stop3167"
         offset="0"
         style="stop-color:#ffffff;stop-opacity:0.7870968;" />
      <stop
         style="stop-color:#ffffff;stop-opacity:0.51764706;"
         offset="0.23395781"
         id="stop3173" />
      <stop
         style="stop-color:#ffffff;stop-opacity:0.24705882;"
         offset="0.56624699"
         id="stop3169" />
      <stop
         style="stop-color:#ffffff;stop-opacity:0;"
         offset="1"
         id="stop3163" />
    </linearGradient>
    <inkscape:perspective
       sodipodi:type="inkscape:persp3d"
       inkscape:vp_x="0 : 526.18109 : 1"
       inkscape:vp_y="0 : 1000 : 0"
       inkscape:vp_z="744.09448 : 526.18109 : 1"
       inkscape:persp3d-origin="372.04724 : 350.78739 : 1"
       id="perspective10" />
    <linearGradient
       inkscape:collect="always"
       xlink:href="#linearGradient3177"
       id="linearGradient3183"
       x1="317.1879"
       y1="7.6932697"
       x2="313.14722"
       y2="350.13498"
       gradientUnits="userSpaceOnUse"
       gradientTransform="matrix(2.0660344,0,0,2.3949553,9.0629813,4.7685161)" />
    <inkscape:perspective
       id="perspective3212"
       inkscape:persp3d-origin="372.04724 : 350.78739 : 1"
       inkscape:vp_z="744.09448 : 526.18109 : 1"
       inkscape:vp_y="0 : 1000 : 0"
       inkscape:vp_x="0 : 526.18109 : 1"
       sodipodi:type="inkscape:persp3d" />
    <inkscape:perspective
       id="perspective3536"
       inkscape:persp3d-origin="372.04724 : 350.78739 : 1"
       inkscape:vp_z="744.09448 : 526.18109 : 1"
       inkscape:vp_y="0 : 1000 : 0"
       inkscape:vp_x="0 : 526.18109 : 1"
       sodipodi:type="inkscape:persp3d" />
    <linearGradient
       inkscape:collect="always"
       xlink:href="#linearGradient3565"
       id="linearGradient3571"
       x1="555.16351"
       y1="432.62704"
       x2="560.50659"
       y2="785.75714"
       gradientUnits="userSpaceOnUse"
       gradientTransform="matrix(2.0544197,0,0,1.8461176,21.415902,172.53332)" />
    <radialGradient
       xlink:href="#linearGradient2433"
       r="42.119514"
       id="radialGradient2440"
       gradientUnits="userSpaceOnUse"
       gradientTransform="scale(1.00084,0.99916)"
       fy="341.59195"
       fx="239.76147"
       cy="340.9613"
       cx="239.76149" />
    <radialGradient
       xlink:href="#linearGradient12484"
       r="5.4656734"
       id="radialGradient12487"
       gradientUnits="userSpaceOnUse"
       gradientTransform="scale(1.24679,0.802058)"
       fy="402.6026"
       fx="197.09251"
       cy="402.6026"
       cx="197.09251" />
    <radialGradient
       xlink:href="#linearGradient11859"
       r="6.5393124"
       id="radialGradient11862"
       gradientUnits="userSpaceOnUse"
       gradientTransform="scale(1.13326,0.882412)"
       fy="385.6871"
       fx="201.19875"
       cy="385.73999"
       cx="201.11713" />
    <radialGradient
       xlink:href="#linearGradient11234"
       r="6.4527106"
       id="radialGradient11237"
       gradientUnits="userSpaceOnUse"
       gradientTransform="scale(1.1854,0.843601)"
       fy="377.655"
       fx="213.94022"
       cy="377.655"
       cx="213.94022" />
    <radialGradient
       xlink:href="#linearGradient11230"
       r="36.468418"
       id="radialGradient11233"
       gradientUnits="userSpaceOnUse"
       gradientTransform="scale(0.628796,1.59034)"
       fy="216.48833"
       fx="427.11334"
       cy="216.30061"
       cx="427.11337" />
    <radialGradient
       xlink:href="#linearGradient10605"
       r="12.947412"
       id="radialGradient10608"
       gradientUnits="userSpaceOnUse"
       gradientTransform="scale(0.971462,1.02938)"
       fy="313.05914"
       fx="221.88396"
       cy="312.90268"
       cx="221.88394" />
    <radialGradient
       xlink:href="#linearGradient10601"
       r="27.521145"
       id="radialGradient10604"
       gradientUnits="userSpaceOnUse"
       gradientTransform="scale(1.08483,0.921805)"
       fy="354.08215"
       fx="214.36667"
       cy="353.90652"
       cx="213.92369" />
    <radialGradient
       xlink:href="#linearGradient9976"
       r="26.255318"
       id="radialGradient9979"
       gradientUnits="userSpaceOnUse"
       gradientTransform="scale(0.939181,1.06476)"
       fy="333.58627"
       fx="245.16818"
       cy="333.98981"
       cx="244.94055" />
    <radialGradient
       xlink:href="#linearGradient9351"
       r="21.238926"
       id="radialGradient9354"
       gradientUnits="userSpaceOnUse"
       gradientTransform="scale(0.781425,1.27971)"
       fy="269.83032"
       fx="315.70816"
       cy="269.83035"
       cx="315.70813" />
    <linearGradient
       id="linearGradient9351">
      <stop
         style="stop-color: rgb(195, 197, 204); stop-opacity: 1;"
         offset="0.00000000"
         id="stop9352" />
      <stop
         style="stop-color: rgb(195, 197, 204); stop-opacity: 0;"
         offset="1.0000000"
         id="stop9353" />
    </linearGradient>
    <linearGradient
       id="linearGradient9976">
      <stop
         style="stop-color: rgb(205, 207, 214); stop-opacity: 1;"
         offset="0.00000000"
         id="stop9977" />
      <stop
         style="stop-color: rgb(205, 207, 214); stop-opacity: 0;"
         offset="1.0000000"
         id="stop9978" />
    </linearGradient>
    <linearGradient
       id="linearGradient10601">
      <stop
         style="stop-color: rgb(211, 213, 220); stop-opacity: 1;"
         offset="0.00000000"
         id="stop10602" />
      <stop
         style="stop-color: rgb(211, 213, 220); stop-opacity: 0;"
         offset="1.0000000"
         id="stop10603" />
    </linearGradient>
    <linearGradient
       id="linearGradient10605">
      <stop
         style="stop-color: rgb(198, 200, 207); stop-opacity: 1;"
         offset="0.00000000"
         id="stop10606" />
      <stop
         style="stop-color: rgb(198, 200, 207); stop-opacity: 0;"
         offset="1.0000000"
         id="stop10607" />
    </linearGradient>
    <linearGradient
       id="linearGradient11230">
      <stop
         style="stop-color: rgb(205, 207, 214); stop-opacity: 1;"
         offset="0.00000000"
         id="stop11231" />
      <stop
         style="stop-color: rgb(215, 217, 224); stop-opacity: 0;"
         offset="1.0000000"
         id="stop11232" />
    </linearGradient>
    <linearGradient
       id="linearGradient11234">
      <stop
         style="stop-color: rgb(206, 208, 215); stop-opacity: 1;"
         offset="0.00000000"
         id="stop11235" />
      <stop
         style="stop-color: rgb(206, 208, 215); stop-opacity: 0;"
         offset="1.0000000"
         id="stop11236" />
    </linearGradient>
    <linearGradient
       id="linearGradient11859">
      <stop
         style="stop-color: rgb(209, 211, 217); stop-opacity: 1;"
         offset="0.00000000"
         id="stop11860" />
      <stop
         style="stop-color: rgb(209, 211, 217); stop-opacity: 0;"
         offset="1.0000000"
         id="stop11861" />
    </linearGradient>
    <linearGradient
       id="linearGradient12484">
      <stop
         style="stop-color: rgb(209, 211, 217); stop-opacity: 1;"
         offset="0.00000000"
         id="stop12485" />
      <stop
         style="stop-color: rgb(209, 211, 217); stop-opacity: 0;"
         offset="1.0000000"
         id="stop12486" />
    </linearGradient>
    <linearGradient
       id="linearGradient2433">
      <stop
         style="stop-color: rgb(235, 240, 255); stop-opacity: 1;"
         offset="0.00000000"
         id="stop2434" />
      <stop
         style="stop-color: rgb(235, 240, 255); stop-opacity: 0;"
         offset="1.0000000"
         id="stop2435" />
    </linearGradient>
    <inkscape:perspective
       id="perspective6077"
       inkscape:persp3d-origin="41.765224 : 27.725662 : 1"
       inkscape:vp_z="83.530449 : 41.588493 : 1"
       inkscape:vp_y="0 : 1000 : 0"
       inkscape:vp_x="0 : 41.588493 : 1"
       sodipodi:type="inkscape:persp3d" />
  </defs>
  <sodipodi:namedview
     id="base"
     pagecolor="#ffffff"
     bordercolor="#666666"
     borderopacity="1.0"
     inkscape:pageopacity="0.0"
     inkscape:pageshadow="2"
     inkscape:zoom="0.175"
     inkscape:cx="1640.3765"
     inkscape:cy="309.4152"
     inkscape:document-units="px"
     inkscape:current-layer="layer1"
     showgrid="false"
     borderlayer="true"
     inkscape:window-width="1024"
     inkscape:window-height="712"
     inkscape:window-x="0"
     inkscape:window-y="0" />
  <metadata
     id="metadata7">
    <rdf:RDF>
      <cc:Work
         rdf:about="">
        <dc:format>image/svg+xml</dc:format>
        <dc:type
           rdf:resource="http://purl.org/dc/dcmitype/StillImage" />
      </cc:Work>
    </rdf:RDF>
  </metadata>
  <g
     inkscape:label="Capa 1"
     inkscape:groupmode="layer"
     id="layer1">
    <rect
       style="opacity:1;fill:url(#linearGradient3183);fill-opacity:1;stroke:none;stroke-width:10;stroke-linecap:round;stroke-linejoin:round;stroke-miterlimit:4;stroke-dasharray:none;stroke-opacity:1"
       id="rect2383"
       width="2208.0564"
       height="972.54657"
       x="-3.4590783"
       y="-3.4184008" />
    <path
       style="fill:url(#linearGradient3571);fill-opacity:1"
       d="M 1270.2463,714.31113 L 1269.6043,716.79186 C 1269.2701,718.15968 1269.1039,721.35583 1269.2191,723.94558 C 1269.4743,729.68216 1268.8885,731.39147 1266.4584,731.90697 C 1265.4325,732.12458 1264.4547,732.69319 1264.2756,733.17617 L 1263.9546,734.04153 L 1269.6043,734.04153 L 1275.2539,734.04153 L 1275.2539,733.23386 C 1275.2539,732.80177 1274.5283,732.28668 1273.6489,732.08002 C 1272.7695,731.87337 1272.0635,731.67117 1272.0439,731.61851 C 1272.0242,731.5658 1271.7983,729.75321 1271.5945,727.58011 C 1271.3907,725.40701 1271.045,721.55235 1270.7599,718.98413 L 1270.2463,714.31113 z M 1279.2986,736.8684 L 1270.0537,736.98377 C 1264.9869,737.04203 1260.6536,737.34163 1260.4236,737.67606 C 1260.0129,738.27326 1259.09,765.63219 1257.7914,813.88611 L 1257.1494,838.28949 L 1256.1863,839.15485 L 1255.2233,840.02021 L 1253.6825,838.23179 L 1252.1417,836.38566 L 1250.4725,838.00101 L 1248.8033,839.61638 L 1244.5018,839.61638 L 1240.2004,839.61638 L 1239.9436,843.424 L 1239.6868,847.17391 L 1237.1188,847.00084 C 1235.7147,846.90362 1234.372,847.12652 1234.1013,847.52006 C 1233.0713,849.01762 1227.296,848.14195 1227.2961,846.48163 C 1227.2961,844.23174 1223.1982,844.69172 1222.2242,847.05855 L 1221.7106,848.44312 L 1215.3547,848.15468 C 1211.8608,848.01208 1208.5602,847.52973 1208.0359,847.05855 L 1207.0729,846.19317 L 1206.8161,814.86686 L 1206.5593,783.54055 L 1208.1643,784.00208 L 1209.7051,784.40593 L 1209.7051,783.02134 C 1209.7051,782.25226 1208.7821,779.81919 1207.6507,777.59835 L 1205.5963,773.55999 L 1197.2502,773.55999 L 1188.9041,773.55999 L 1188.1337,775.4061 C 1187.6673,776.50837 1187.2991,790.77492 1187.2991,810.94385 L 1187.2991,844.69319 L 1186.1435,844.69319 C 1185.5079,844.69319 1184.5376,843.81341 1183.9606,842.73171 C 1182.6074,840.19458 1180.4612,839.83641 1178.632,841.86633 C 1177.813,842.77524 1176.7819,843.25417 1176.2566,842.96247 L 1175.3578,842.44325 L 1175.3578,828.77044 L 1175.3578,815.15532 L 1172.7897,810.30927 C 1171.3854,807.66718 1169.5192,804.57163 1168.6167,803.38632 C 1167.7142,802.20097 1166.8487,801.11203 1166.7549,800.96328 C 1166.6611,800.81454 1165.6063,800.57203 1164.3795,800.44406 L 1162.1324,800.2133 L 1160.1422,802.86711 C 1159.0483,804.32907 1157.1396,807.58506 1155.905,810.13618 L 1153.658,814.80918 L 1153.337,828.82813 C 1153.1513,836.54979 1152.7656,856.72666 1152.5023,873.65417 C 1152.239,890.58171 1151.841,904.886 1151.6035,905.44201 C 1150.498,908.03084 1149.7516,905.92689 1149.7417,900.1921 C 1149.7272,891.83468 1149.4222,890.97401 1145.6971,889.63462 L 1142.5512,888.4808 L 1142.5512,885.01933 C 1142.5512,882.90073 1142.13,881.13462 1141.4598,880.63479 C 1140.8492,880.17937 1139.9645,878.36248 1139.4696,876.59643 L 1138.5708,873.4234 L 1134.5262,873.4234 L 1130.5457,873.4234 L 1130.5457,874.40416 C 1130.5457,874.95135 1129.6548,875.94925 1128.5555,876.59643 L 1126.5653,877.75025 L 1126.5011,882.5963 L 1126.5011,887.44237 L 1125.7307,885.76932 C 1125.332,884.87772 1125.0458,880.66545 1125.0887,876.36566 C 1125.177,867.52384 1125.1329,867.26996 1121.8145,866.67354 L 1119.3748,866.26969 L 1119.3748,860.50058 C 1119.3748,857.13621 1119.0709,854.73145 1118.6044,854.73147 C 1118.1647,854.73147 1117.7697,855.58166 1117.7698,856.63528 C 1117.7698,857.68889 1117.5699,858.3594 1117.3204,858.13524 C 1117.071,857.9111 1116.7192,850.82084 1116.55,842.38555 C 1116.3808,833.95028 1116.0035,821.81543 1115.7154,815.38608 L 1115.2018,803.67478 L 1113.8536,803.04016 C 1111.7724,802.03931 1104.1992,802.10714 1100.8208,803.15557 L 1097.8034,804.07861 L 1097.8034,814.11687 C 1097.7999,830.97571 1096.7623,853.28917 1096.0058,853.28919 C 1095.613,853.28919 1094.9249,852.33993 1094.465,851.15463 L 1093.6304,848.96234 L 1091.3834,848.96234 C 1090.1611,848.96234 1088.737,849.50595 1088.1733,850.11617 L 1087.1461,851.21231 L 1085.0275,850.75078 L 1082.8447,850.34693 L 1081.8175,851.44306 C 1080.4128,852.96396 1078.8604,852.87282 1077.837,851.15463 L 1076.9382,849.71233 L 1073.8566,849.71233 L 1070.7108,849.71233 L 1070.3256,848.44312 C 1070.1043,847.7517 1069.948,845.42867 1070.0046,843.30861 L 1070.133,839.50099 L 1067.0513,837.02029 L 1064.0339,834.59724 L 1058.7052,834.59724 L 1053.3124,834.59724 L 1050.2308,837.19334 L 1047.0849,839.73175 L 1046.9565,842.73171 C 1046.8669,844.38502 1046.7432,847.48578 1046.6997,849.59696 L 1046.6355,853.40456 L 1039.1882,852.94305 L 1031.8052,852.42381 L 1030.457,855.01993 C 1029.6947,856.45628 1029.0446,858.30624 1029.0446,859.11601 C 1029.0446,861.5236 1027.0801,860.209 1026.7975,857.61602 L 1026.5407,855.30839 L 1023.2023,855.8276 C 1019.4194,856.41849 1019.0423,856.37669 1016.2686,855.76992 L 1014.2142,855.36607 L 1013.187,859.51983 C 1012.594,861.81179 1011.5533,864.32894 1010.94,865.11587 L 1009.8486,866.55815 L 1009.8486,872.44265 L 1009.8486,878.38486 L 1007.7942,880.23096 C 1005.1892,882.57184 1004.2631,881.99465 1004.2631,878.1541 C 1004.2631,876.47495 1003.7531,874.47879 1003.1075,873.71186 C 1002.4325,872.90995 1001.9023,870.74266 1001.8877,868.57735 L 1001.8877,864.82743 L 997.52206,862.57746 L 993.22061,860.38519 L 992.70702,853.80841 C 992.4217,850.17132 992.31433,845.59575 992.45021,843.65476 L 992.64281,840.1356 L 990.13898,839.50099 C 987.4426,838.85472 986.38785,837.36682 987.12156,835.28955 L 987.57096,833.96264 L 985.90175,833.15496 C 984.98263,832.71296 982.84532,832.45642 981.2151,832.57804 L 978.26186,832.80882 L 978.00508,835.46262 L 977.81246,838.1164 L 976.33585,838.52023 L 974.92344,838.98178 L 974.40983,843.3663 C 974.12839,845.78583 973.89625,850.07998 973.89623,852.94305 L 973.89623,858.19294 L 972.86902,858.48138 C 972.31939,858.64799 966.33047,858.84503 959.51529,858.94291 L 947.12458,859.11601 L 945.96896,860.50058 C 945.36572,861.26619 944.00799,861.88515 942.95154,861.88515 L 941.08971,861.88515 L 940.31931,863.73128 C 939.89711,864.72917 938.94998,865.74504 938.26489,865.98123 L 937.04508,866.38508 L 934.15604,863.78898 C 932.56282,862.35728 930.98503,861.19289 930.68921,861.19289 C 930.39338,861.19289 929.80361,860.43224 929.341,859.51983 C 927.92843,856.73391 920.17271,855.45041 912.19945,856.63528 L 909.31041,857.0391 L 908.79681,859.11601 L 908.34741,861.19289 L 906.6782,861.19289 C 905.75891,861.19289 904.30275,861.56829 903.40394,862.00056 C 902.50516,862.43282 899.99552,862.82365 897.8185,862.9236 C 893.17811,863.13665 891.45679,864.4196 891.27004,867.71197 C 891.12901,870.19848 889.22459,871.60615 889.08721,869.32732 C 888.981,867.56541 888.60104,863.92226 888.44522,862.80824 C 888.37615,862.31435 887.6795,861.88515 886.90439,861.88515 C 886.12929,861.88515 885.15559,861.15884 884.72158,860.26982 L 883.95118,858.65447 L 877.5311,858.59677 C 874.01359,858.55497 869.5609,858.48066 867.64422,858.4237 L 864.17737,858.30831 L 864.75518,844.40475 L 865.33298,830.50116 L 864.49839,830.03963 C 864.0389,829.78448 863.43128,830.2244 863.15018,831.02038 C 862.86903,831.81634 862.33945,832.46265 861.99456,832.46268 C 861.38893,832.46268 856.67333,819.8603 856.2165,817.05913 C 855.93509,815.33362 853.96949,814.68189 853.96949,816.30914 C 853.96949,817.82094 847.45976,831.02036 846.71481,831.02038 C 846.41129,831.02038 845.94431,830.2872 845.6876,829.40505 L 845.2382,827.7897 L 844.33939,828.59737 C 843.46079,829.38687 842.13055,843.34053 841.89978,854.21223 L 841.77137,859.86598 L 839.97376,860.90443 L 838.17612,861.94286 L 829.05964,861.76979 L 820.00735,861.53903 L 819.87895,858.07756 C 819.74313,853.91852 818.94347,853.30396 813.5231,853.28919 C 808.58572,853.27572 807.61664,854.10899 807.61664,858.13524 L 807.61664,861.25057 L 805.43381,863.6736 L 803.3152,866.09664 L 800.49037,865.75048 C 798.91938,865.5685 795.72841,864.90185 793.4283,864.25051 L 789.25526,863.03899 L 787.90705,860.55826 C 787.18255,859.18631 786.39847,855.94543 786.17362,853.34687 C 785.92394,850.46062 785.36101,848.39025 784.69701,848.03927 L 783.6056,847.46237 L 783.6056,842.84708 L 783.6056,838.23179 L 782.00058,837.4818 C 781.11583,837.0563 779.08274,836.78959 777.44235,836.9049 L 774.42491,837.13565 L 773.65451,835.46262 L 772.81991,833.78957 L 765.69364,834.13571 L 758.56737,834.42417 L 759.20937,823.57823 C 759.52787,817.60425 760.02951,808.31642 760.36499,802.98247 L 761.00699,793.29035 L 760.23659,792.425 C 759.81251,791.93109 758.93976,791.50193 758.31057,791.50193 C 757.68138,791.50193 755.90973,790.62701 754.39434,789.54044 L 751.6337,787.57893 L 751.6337,785.61745 C 751.63368,784.55421 751.1561,783.44733 750.60649,783.13673 C 743.68515,779.22459 726.89846,778.97581 726.78807,782.79058 C 726.75187,784.04115 721.88326,787.17508 719.9828,787.1751 L 718.8914,787.1751 L 718.8914,793.92496 L 715.48876,793.75189 L 709.1329,900.71133 L 708.87609,900.71133 L 706.37226,900.48056 L 706.17966,897.94216 C 706.05393,896.55928 705.56496,894.66078 705.15245,893.67301 C 704.73972,892.68524 704.07245,887.19945 703.61165,881.50019 C 702.71304,870.3886 702.24441,869.21193 698.7324,869.21195 L 696.42116,869.21195 L 695.58657,867.76967 C 694.50903,865.96065 692.72119,865.94751 691.67032,867.71197 C 691.22678,868.45675 689.86971,869.28366 688.6529,869.5581 L 686.40588,870.07731 L 685.31447,868.57735 L 684.22305,867.07739 L 679.98582,867.07739 L 675.74857,867.07739 L 675.17076,868.57735 C 674.87741,869.40761 674.76028,874.34908 674.91397,879.53867 L 675.23497,888.94233 L 673.75836,889.23079 C 672.96391,889.36839 672.0307,890.21038 671.63974,891.1346 C 671.23749,892.08539 670.11106,892.90567 669.0717,893.03841 L 667.2099,893.26917 L 666.82469,895.46143 C 666.57302,896.77585 665.85061,897.67315 664.96288,897.82678 L 663.48626,898.05753 L 663.03686,896.55757 L 662.65165,895.11529 L 658.3502,895.11529 L 654.04876,895.11529 L 653.59936,893.38455 C 653.33394,892.43412 652.43133,891.50089 651.60915,891.30767 C 650.13755,890.96186 649.78474,890.15177 648.84851,884.90396 L 648.39911,882.25016 L 645.57428,881.44246 C 643.94247,880.95856 641.17425,880.7652 638.96163,881.03863 L 635.17378,881.55787 L 632.99096,880.0002 L 630.87234,878.44254 L 628.62532,879.76943 C 627.41301,880.48862 625.74172,881.42938 624.90169,881.84631 L 623.36088,882.5963 L 623.29667,893.67301 L 623.23248,904.69202 L 620.60025,906.1343 L 617.90382,907.51889 L 617.2618,906.59583 C 616.92531,906.10659 616.40962,901.46924 616.10621,896.26911 C 615.80256,891.06896 615.3313,885.63564 615.079,884.15397 L 614.62959,881.44246 L 613.28138,881.44246 C 612.5122,881.44246 611.40119,880.95217 610.84174,880.34635 C 610.28212,879.74052 609.39932,879.37953 608.91573,879.53867 C 608.43213,879.69782 607.5208,879.41107 606.8613,878.90407 C 605.5808,877.91967 602.67891,877.63924 593.50759,877.75025 L 587.72954,877.86562 L 586.70232,879.82713 L 585.67511,881.78863 L 583.36388,882.13477 L 581.05267,882.53862 L 581.24527,889.86539 C 581.39997,897.28514 580.73041,899.56861 578.42044,900.36519 C 576.7765,900.93205 572.51398,898.92469 572.51398,897.596 C 572.51398,897.03387 571.62769,895.77725 570.58796,894.76913 L 568.72615,892.92302 L 565.38771,892.92302 L 562.11348,892.92302 L 562.11348,894.01916 C 562.11348,894.60271 561.25023,895.58577 560.18746,896.21143 L 558.19725,897.30754 L 556.33542,896.3845 C 555.30965,895.86673 553.89694,895.04294 553.18959,894.53837 C 552.48227,894.03378 549.5205,893.49242 546.57694,893.32687 L 541.24829,892.98071 L 539.45067,894.82683 L 537.71725,896.61525 L 536.88263,903.59591 L 536.11223,910.51884 L 532.90221,910.92266 C 530.39801,911.24871 527.96947,911.91349 526.22535,912.71109 L 526.22535,906.65351 L 517.62246,906.65351 C 517.2106,903.44705 516.73289,900.45915 516.40265,899.15367 L 515.50385,895.63451 L 510.11098,895.92297 L 504.71813,896.21143 L 504.26873,889.34616 C 503.99132,885.58277 503.75737,880.45888 503.75511,877.98101 L 503.75511,873.48108 L 501.5081,872.67341 C 500.29895,872.21136 498.48819,871.17937 497.46346,870.36577 L 495.60165,868.86581 L 494.70285,869.96194 C 493.40001,871.47746 489.27573,873.73876 488.73217,873.25035 C 488.48499,873.02821 487.87442,872.11518 487.38396,871.23115 C 486.89353,870.34709 485.57104,869.15249 484.43073,868.57735 L 482.37633,867.5389 L 479.61569,870.01963 L 476.85506,872.50036 L 477.17608,886.6347 L 477.49708,900.82672 L 476.21306,901.28825 C 475.51397,901.52932 474.36687,901.31718 473.70923,900.82672 C 473.00674,900.30281 471.41992,900.07962 469.85719,900.3075 C 468.39421,900.52082 466.7912,900.48603 466.26196,900.1921 L 465.29896,899.6152 L 464.52854,889.98078 C 464.12176,884.67979 463.77367,878.96791 463.75814,877.2887 L 463.75814,874.23107 L 462.28152,874.23107 C 461.45599,874.23107 460.32505,873.78528 459.77769,873.19264 C 459.23034,872.59998 458.33934,872.09649 457.78748,872.09651 C 457.23562,872.09651 456.32078,871.62491 455.79727,871.05806 L 454.83425,870.01963 L 446.61658,870.1927 L 438.33469,870.30809 L 436.15187,872.26958 C 434.93413,873.36412 433.07339,874.46026 432.04304,874.6926 L 430.18121,875.15414 L 430.18121,877.75025 L 430.11702,880.34635 L 426.13658,883.17322 L 422.22035,886.00007 L 422.22035,889.00004 C 422.22035,891.87666 420.47486,894.46988 419.26712,893.38455 C 418.98308,893.12932 417.91604,893.39614 416.95589,893.96145 C 416.49198,894.2346 413.39564,900.37291 410.15062,906.65351 L 0.87170511,906.65351 L 0.87170511,916.86485 L -8.5015847,916.86485 L -8.5015847,1590.294 L 1690.7603,1590.294 L 1690.7603,1586.6017 L 2206.4196,1586.6017 L 2206.4196,913.11493 L 1851.647,913.11493 L 1851.647,899.67288 L 1851.5828,877.3464 L 1850.7482,878.67331 L 1849.9136,879.94252 L 1848.5012,879.53867 C 1847.7084,879.31259 1846.6229,879.62315 1846.0616,880.23096 C 1844.5898,881.82451 1842.9023,881.53725 1842.0812,879.59636 L 1841.3749,877.92332 L 1838.1007,877.46179 C 1831.0487,876.44848 1829.2425,877.76889 1829.883,883.34629 L 1830.3324,887.26928 L 1829.1768,886.92316 L 1828.0854,886.57699 L 1827.3792,881.78863 L 1826.673,877.00026 L 1824.5544,876.53873 C 1823.3973,876.29231 1821.8174,875.60189 1821.0234,874.98106 L 1819.6109,873.82725 L 1818.0059,874.75029 L 1816.4009,875.61567 L 1813.7687,874.75029 L 1811.0723,873.88493 L 1809.2104,875.09645 C 1808.1413,875.76948 1805.7421,876.30171 1803.6892,876.30795 C 1801.6985,876.31403 1799.5759,876.58017 1798.9383,876.94258 L 1797.7827,877.63486 L 1797.9753,883.75012 L 1798.2321,889.92308 L 1796.9481,889.92308 C 1796.243,889.92308 1794.7875,889.44477 1793.7381,888.82694 L 1791.8121,887.67313 L 1788.602,888.53848 L 1785.4562,889.40386 L 1782.6956,887.8462 C 1779.4023,886.01728 1775.7558,885.91483 1772.0383,887.50005 L 1769.2777,888.65387 L 1766.9664,887.78851 L 1764.6552,886.92316 L 1763.1786,887.61542 C 1762.3694,887.99173 1759.3596,888.45018 1756.5017,888.65387 C 1750.156,889.10617 1747.0537,890.37345 1746.4222,892.63456 L 1745.9086,894.3076 L 1743.4048,894.07686 L 1740.9652,893.90377 L 1740.7084,891.36536 C 1740.5827,889.9825 1740.1579,888.02625 1739.7454,887.03852 C 1739.3326,886.05075 1738.6012,880.62268 1738.1404,874.92338 C 1737.2418,863.81179 1736.7731,862.63514 1733.2611,862.63514 L 1731.0141,862.63514 L 1730.1153,861.19289 C 1729.0377,859.38387 1727.2499,859.37073 1726.199,861.13518 C 1725.7555,861.87997 1724.3984,862.70684 1723.1816,862.98131 L 1720.9346,863.44282 L 1719.8432,861.94286 L 1718.7518,860.50058 L 1714.5145,860.50058 L 1710.2773,860.50058 L 1709.6995,862.00056 C 1709.4061,862.8308 1709.3532,867.71455 1709.5069,872.90418 L 1709.7637,882.36555 L 1708.2871,882.5963 C 1707.4926,882.7339 1706.5594,883.63359 1706.1685,884.55781 C 1705.7662,885.50858 1704.6398,886.32884 1703.6004,886.4616 L 1701.8028,886.69238 L 1701.3534,888.82694 C 1701.1017,890.14135 1700.3793,891.09636 1699.4916,891.24999 L 1698.0792,891.48074 L 1697.6298,889.98078 L 1697.1804,888.4808 L 1692.8789,888.4808 L 1688.5775,888.4808 L 1688.1281,886.75006 C 1687.8626,885.79963 1686.96,884.86636 1686.1379,884.67318 C 1684.6663,884.32737 1684.3135,883.57498 1683.3772,878.32715 L 1682.9278,875.67337 L 1680.103,874.80799 C 1678.4712,874.32406 1675.7672,874.18837 1673.5545,874.46185 L 1669.7025,874.92338 L 1667.5839,873.4234 L 1665.401,871.86573 L 1663.2182,873.19264 C 1662.0059,873.91183 1660.2704,874.85256 1659.4304,875.26952 L 1657.9538,876.01949 L 1657.8896,887.03852 L 1657.8254,898.11521 L 1655.129,899.49983 L 1652.4325,900.94209 L 1651.8547,900.01904 C 1651.5182,899.52979 1650.9384,894.89245 1650.6349,889.69232 C 1650.3313,884.49218 1649.9242,879.00111 1649.6719,877.51948 L 1649.2225,874.8657 L 1647.8101,874.8657 C 1647.0409,874.8657 1645.9299,874.37534 1645.3705,873.76956 C 1644.8108,873.16374 1643.9923,872.74502 1643.5086,872.90418 C 1643.025,873.06335 1642.0495,872.7766 1641.39,872.26958 C 1640.1095,871.28518 1637.2077,871.0625 1628.0363,871.17344 L 1622.3224,871.23115 L 1621.231,873.25035 L 1620.2038,875.21182 L 1617.8926,875.55798 L 1615.5814,875.90413 L 1615.774,883.2309 C 1615.9287,890.65065 1615.3234,892.99178 1613.0134,893.78838 C 1611.3694,894.35526 1607.0427,892.34788 1607.0427,891.01921 C 1607.0427,890.45707 1606.1564,889.20048 1605.1167,888.19236 L 1603.2549,886.34624 L 1599.9164,886.34624 L 1596.6422,886.34624 L 1596.6422,887.38467 C 1596.6422,887.96822 1595.779,888.9513 1594.7162,889.57693 L 1592.7902,890.73075 L 1590.9283,889.80769 C 1589.9026,889.28994 1588.4899,888.46613 1587.7825,887.96159 C 1587.0752,887.457 1584.0492,886.85795 1581.1056,886.69238 L 1575.777,886.40392 L 1573.9794,888.25005 L 1572.246,890.03847 L 1571.4756,896.96142 L 1570.641,903.94203 L 1567.4309,904.34588 C 1562.6802,904.96441 1558.3039,906.88844 1558.186,908.38425 C 1557.8878,912.16629 1557.5875,913.119 1556.581,913.69185 C 1553.891,915.22281 1553.6622,914.74262 1552.6648,904.57663 C 1552.2039,899.87911 1551.4167,894.43774 1550.9314,892.51917 L 1550.0967,889.05772 L 1544.7039,889.34616 L 1539.3111,889.63462 L 1538.7974,882.76939 C 1538.52,879.00597 1538.2861,873.88212 1538.2838,871.4042 L 1538.2838,866.90432 L 1536.101,866.09664 C 1534.8919,865.63459 1533.0169,864.54484 1531.9922,863.73128 L 1530.1304,862.289 L 1529.2316,863.38514 C 1527.9287,864.90065 1523.8686,867.16199 1523.3251,866.67354 C 1523.0779,866.4514 1522.4673,865.53838 1521.9769,864.65434 C 1521.4864,863.77031 1520.164,862.5757 1519.0237,862.00056 L 1516.905,860.96211 L 1514.1444,863.38514 L 1511.448,865.86586 L 1511.7048,880.05789 L 1512.0258,894.24991 L 1510.7418,894.65376 C 1510.0427,894.89482 1508.9599,894.74039 1508.3022,894.24991 C 1507.5997,893.72603 1506.0128,893.50279 1504.4501,893.7307 C 1502.9871,893.94404 1501.32,893.85156 1500.7907,893.55763 L 1499.8277,893.03841 L 1499.1215,883.40398 C 1498.7147,878.10301 1498.3666,872.39112 1498.3511,870.71193 L 1498.2869,867.65429 L 1496.8102,867.65429 C 1495.9847,867.65429 1494.8537,867.15083 1494.3064,866.55815 C 1493.7591,865.96549 1492.868,865.5197 1492.3162,865.5197 C 1491.7643,865.5197 1490.8495,865.04809 1490.326,864.48127 L 1489.4272,863.44282 L 1481.1453,863.55821 L 1472.9276,863.73128 L 1470.6806,865.69279 C 1469.4628,866.78734 1467.6663,867.88345 1466.636,868.11582 L 1464.7099,868.51964 L 1464.7099,871.17344 L 1464.6457,873.76956 L 1460.7295,876.59643 L 1456.7491,879.36558 L 1456.7491,882.42323 C 1456.7491,885.29987 1455.0035,887.89306 1453.7958,886.80775 C 1453.5118,886.55253 1452.509,886.81938 1451.5488,887.38467 C 1450.5887,887.94997 1448.5327,888.62472 1446.9906,888.88463 L 1444.1657,889.34616 L 1443.7163,887.8462 C 1443.1535,885.91227 1441.0846,885.90514 1439.9285,887.8462 C 1438.1768,890.7874 1437.6015,887.96687 1437.0395,872.44265 L 1436.5259,856.75064 L 1434.664,856.11606 C 1433.6668,855.77535 1432.7532,854.81791 1432.6096,853.92377 L 1432.3528,852.25074 L 1430.3626,851.84689 L 1428.3724,851.44306 L 1428.1798,846.77009 C 1427.8853,840.08781 1427.4917,839.13983 1424.7772,838.28949 L 1422.3375,837.5395 L 1422.3375,833.55881 L 1422.3375,829.57812 L 1419.1917,829.57812 L 1416.0459,829.57812 L 1415.5323,831.07808 C 1415.2469,831.886 1415.1297,833.86774 1415.2755,835.5203 L 1415.5965,838.52023 L 1413.2852,839.55868 L 1410.974,840.53942 L 1411.2308,860.03905 L 1411.5518,879.53867 L 1410.3962,879.53867 L 1409.1764,879.53867 L 1408.6628,872.32728 C 1408.3772,868.38944 1407.817,865.1187 1407.443,865.00049 C 1404.5182,864.0762 1402.5159,862.45889 1400.0599,859.17369 L 1397.1709,855.36607 L 1394.6671,855.76992 L 1392.2274,856.17375 L 1391.3928,855.30839 C 1390.9446,854.79729 1390.5239,848.83932 1390.4298,841.80863 C 1390.3375,834.90942 1390.1383,829.11533 1389.9804,828.88581 C 1389.8226,828.65632 1389.4914,827.06514 1389.2742,825.36665 C 1388.7871,821.55691 1389.5084,821.9886 1382.4048,821.15521 C 1374.7876,820.26154 1375.2142,819.82592 1375.2143,828.19353 L 1375.2143,835.34723 L 1368.5374,835.34723 L 1361.9248,835.34723 L 1360.4481,836.32798 L 1358.9715,837.30875 L 1359.4209,851.21231 C 1359.6686,858.87519 1359.7243,865.47078 1359.5493,865.86586 C 1359.1703,866.72153 1346.3137,866.40936 1345.2968,865.5197 C 1344.9193,865.18944 1344.3065,851.21126 1343.8844,834.48187 C 1342.991,799.07118 1343.1187,801.0424 1341.2522,798.48257 C 1340.452,797.38521 1340.0273,796.29488 1340.2891,796.05954 C 1340.8815,795.52725 1338.6114,791.50193 1337.7211,791.50193 C 1336.7813,791.50193 1335.2173,794.9051 1335.2173,796.92492 C 1335.2173,797.87447 1334.8039,798.8589 1334.2543,799.17485 C 1333.7047,799.49081 1332.8158,800.40381 1332.3283,801.19405 L 1331.4295,802.63633 L 1324.8168,802.63633 L 1318.2041,802.63633 L 1316.3423,799.75177 C 1315.3326,798.17136 1314.4995,796.43228 1314.4805,795.82877 C 1314.4614,795.22526 1313.8568,793.93138 1313.1323,793.00189 L 1311.7841,791.32886 L 1310.3717,793.0596 C 1309.567,793.99991 1308.8407,795.7198 1308.8308,796.92492 C 1308.8211,798.12998 1308.4168,799.54688 1307.8678,800.04023 L 1306.8406,800.90559 L 1307.0974,848.84697 L 1307.3542,896.73064 L 1306.3912,898.92289 C 1305.8604,900.10821 1305.1928,903.81433 1304.9146,907.17275 L 1304.4652,913.28801 L 1303.2454,912.94186 C 1302.5879,912.77115 1300.3987,912.6801 1298.3661,912.71109 L 1294.6425,912.76879 L 1294.1931,908.32657 C 1293.9333,905.89805 1293.4778,896.82704 1293.2301,888.13466 C 1292.9823,879.44229 1292.5824,869.00239 1292.3313,864.9428 L 1291.8819,857.55834 L 1289.1854,857.73141 C 1287.7051,857.82097 1286.3662,857.73689 1286.168,857.55834 C 1285.6564,857.09737 1284.3927,833.48887 1281.2246,764.90631 C 1280.5584,750.48487 1279.8167,738.30105 1279.6196,737.79147 L 1279.2986,736.8684 z"
       id="path3218" />
    <g
       transform="matrix(2.815585,0,0,2.8187702,-382.32917,-767.32198)"
       id="g6116">
      <g
         transform="translate(-17.5084,-1.22151)"
         id="g3433">
        <path
           style="fill:url(#radialGradient2440);fill-opacity:1;stroke:none;stroke-width:1pt;stroke-linecap:butt;stroke-linejoin:miter;stroke-opacity:1"
           id="path1186"
           d="M 233.5625,301.03125 C 204.51681,304.7692 187.64239,344.2086 206.4375,367.1875 C 222.06986,390.35768 262.21435,389.98423 275.87823,364.90703 C 290.23867,343.18446 278.36353,308.30321 252.10727,302.61009 C 246.13578,300.52712 239.77064,301.02927 233.5625,301.03125 z" />
        <path
           style="fill:#ebf0ff;fill-opacity:1;stroke:none;stroke-width:1pt;stroke-linecap:butt;stroke-linejoin:miter;stroke-opacity:1"
           id="path1867"
           d="M 270.63857,342.6557 C 270.64287,359.3548 257.10677,372.89438 240.40766,372.89438 C 223.70856,372.89438 210.17246,359.3548 210.17676,342.6557 C 210.17246,325.9566 223.70856,312.41702 240.40766,312.41702 C 257.10677,312.41702 270.64287,325.9566 270.63857,342.6557 z" />
        <path
           style="fill:url(#radialGradient9979);fill-opacity:1;fill-rule:evenodd;stroke:none;stroke-width:1pt;stroke-linecap:butt;stroke-linejoin:miter;stroke-opacity:1"
           id="path3110"
           d="M 213.5,344.03125 C 212.40569,344.07535 211.34557,344.26185 210.375,344.59375 C 211.27878,358.59424 221.60871,369.99127 235.15625,372.375 C 235.23234,371.70812 235.44241,371.04906 235.375,370.375 C 235.13614,367.98646 235.11437,365.99339 233.9375,363.875 C 232.81346,361.85173 229.50479,358.96144 228.90625,355.96875 C 228.76098,355.24242 228.90559,348.39004 228.53125,348.0625 C 225.51331,345.4218 224.03417,344.88154 219.90625,344.46875 C 217.7716,344.25528 215.55794,343.94831 213.5,344.03125 z" />
        <path
           style="fill:url(#radialGradient11233);fill-opacity:1;fill-rule:evenodd;stroke:none;stroke-width:1pt;stroke-linecap:butt;stroke-linejoin:miter;stroke-opacity:1"
           id="path3111"
           d="M 265.5,325.78125 C 264.5106,326.63935 263.6803,327.5692 263.09375,328.625 C 262.14089,330.34015 260.5625,331.84827 260.5625,334.375 C 260.5625,338.23924 259.96961,340.02106 258.75,343.375 C 257.76237,346.09097 255.4199,349.47503 255.15625,352.375 C 254.70893,357.29559 255.56551,357.1139 258.40625,361.375 C 258.96452,362.2124 259.70241,363.84629 260.375,365.1875 C 266.62147,359.64799 270.625,351.65544 270.625,342.65625 C 270.625,336.41353 268.74631,330.59952 265.5,325.78125 z" />
        <path
           style="fill:url(#radialGradient10604);fill-opacity:1;fill-rule:evenodd;stroke:none;stroke-width:1pt;stroke-linecap:butt;stroke-linejoin:miter;stroke-opacity:1"
           id="path3112"
           d="M 233.5625,313.28125 C 222.81973,315.78189 214.35909,324.00021 211.40625,334.5625 C 215.14324,334.75298 218.87808,334.7147 222.40625,333.65625 C 224.5877,333.00182 229.21188,332.70133 231.40625,330.78125 C 233.97433,328.53417 237.90615,326.50601 236.09375,322.15625 C 235.17432,319.94962 234.41125,316.4894 233.5625,313.28125 z" />
        <path
           style="fill:url(#radialGradient11237);fill-opacity:1;fill-rule:evenodd;stroke:none;stroke-width:1pt;stroke-linecap:butt;stroke-linejoin:miter;stroke-opacity:1"
           id="path3113"
           d="M 250.375,314.25 C 250.47505,318.35243 252.8768,322.25996 257.84375,321.25 C 258.92591,321.00777 259.7398,320.60751 260.4375,320.15625 C 257.52949,317.56569 254.12374,315.56917 250.375,314.25 z" />
        <path
           style="fill:url(#radialGradient9354);fill-opacity:1;fill-rule:evenodd;stroke:none;stroke-width:1pt;stroke-linecap:butt;stroke-linejoin:miter;stroke-opacity:1"
           id="path3114"
           d="M 244.36648,328.97982 C 247.59164,329.30234 240.3827,334.09826 238.24832,336.53755 C 236.90658,338.07096 235.93169,338.42675 234.6494,340.13646 C 232.96858,342.37756 236.68549,345.89049 237.52854,346.97441 C 239.3657,349.33647 240.25622,349.91053 241.48735,352.37278 C 242.33875,354.07558 241.30455,358.34231 241.12745,360.2904 C 240.75308,364.40847 245.51519,360.65192 246.16594,360.2904 C 248.09362,359.21947 248.97547,350.20156 249.40496,348.05408 C 250.0417,344.8704 251.4856,341.23298 252.64399,338.337 C 253.69334,335.71364 254.26883,332.73202 254.80334,330.05949 C 255.33637,327.39434 251.61369,328.68203 250.12475,328.97982 C 246.79895,329.64498 247.67344,329.64121 244.36648,328.97982 z" />
        <path
           style="fill:url(#radialGradient10608);fill-opacity:1;fill-rule:evenodd;stroke:none;stroke-width:1pt;stroke-linecap:butt;stroke-linejoin:miter;stroke-opacity:1"
           id="path6861"
           d="M 223.9375,317.34375 C 219.86373,319.99967 216.5847,323.65821 214.1875,327.90625 C 214.74091,328.02906 215.42557,328.02352 216.65625,327.53125 C 218.92411,326.62411 219.77092,327.0155 221.34375,324.65625 C 221.71117,324.10512 224.21875,321.91673 224.21875,321.0625 C 224.21875,319.71532 224.13005,318.45873 223.9375,317.34375 z" />
        <path
           style="fill:url(#radialGradient11862);fill-opacity:1;fill-rule:evenodd;stroke:none;stroke-width:1pt;stroke-linecap:butt;stroke-linejoin:miter;stroke-opacity:1"
           id="path7485"
           d="M 227.45157,337.61722 C 224.15058,336.49221 224.76718,340.00334 224.21254,340.49635 C 223.06431,341.51701 226.61182,342.41578 227.81146,343.37549 C 229.2479,344.52464 231.17289,339.77218 231.77027,338.6969 C 232.70172,337.02029 228.1078,337.61722 227.45157,337.61722 z" />
        <path
           style="fill:url(#radialGradient12487);fill-opacity:1;fill-rule:evenodd;stroke:none;stroke-width:1pt;stroke-linecap:butt;stroke-linejoin:miter;stroke-opacity:1"
           id="path8107"
           d="M 244.36648,320.34242 C 240.27442,321.47162 242.04006,323.09281 241.84724,325.02101 C 241.79602,325.53318 247.32032,325.3809 247.9654,325.3809 C 251.78233,325.3809 247.3054,322.26162 246.88572,321.78198 C 245.6701,320.3927 246.55529,321.59317 244.36648,320.34242 z" />
        <path
           style="fill:#d1d3d9;fill-opacity:1;fill-rule:evenodd;stroke:none;stroke-width:1pt;stroke-linecap:butt;stroke-linejoin:miter;stroke-opacity:1"
           id="path8108"
           d="M 247.9654,365.68878 C 246.7753,364.32866 243.48105,367.59867 242.56702,368.20802 C 241.72181,368.77149 249.23117,370.33261 249.40496,370.36737 C 250.77864,370.6421 254.16019,368.60923 255.16323,368.20802 C 257.79526,367.1552 250.86201,365.33413 250.84453,365.32888 C 249.91814,365.05097 248.92511,365.56881 247.9654,365.68878 z" />
      </g>
    </g>
  </g>
</svg>
